<svg width="44" height="17" viewBox="0 0 44 17" fill="none" xmlns="http://www.w3.org/2000/svg" xmlns:xlink="http://www.w3.org/1999/xlink">
<path d="M0 4.13452L11.9906 16.6336L16.8198 -6.81877e-05L0 4.13452ZM42.5 4.13452L41.8155 2.7998C37.135 5.20004 26.1027 8.43661 13.1988 6.41722L12.9669 7.89918L12.7349 9.38114C26.314 11.5062 37.9848 8.13573 43.1845 5.46925L42.5 4.13452Z" fill="currentColor"/>
<path d="M0 4.13452L11.9906 16.6336L16.8198 -6.81877e-05L0 4.13452ZM42.5 4.13452L41.8155 2.7998C37.135 5.20004 26.1027 8.43661 13.1988 6.41722L12.9669 7.89918L12.7349 9.38114C26.314 11.5062 37.9848 8.13573 43.1845 5.46925L42.5 4.13452Z" fill="url(#pattern0_158_72)" fill-opacity="0.1" style="mix-blend-mode:soft-light"/>
<defs>
<pattern id="pattern0_158_72" patternUnits="userSpaceOnUse" patternTransform="matrix(40.04 0 0 80.08 6.81309 -8.09379)" preserveAspectRatio="none" viewBox="18.8154 18.8154 200.2 400.4" width="1" height="1">
<use xlink:href="#pattern0_158_72_inner" transform="translate(-200.2 0)"/>
<g id="pattern0_158_72_inner">
<path d="M81.6215 25.3451C84.8431 16.6389 97.1569 16.6389 100.379 25.345L113.983 62.1093C114.995 64.8465 117.153 67.0046 119.891 68.0175L156.655 81.6215C165.361 84.8431 165.361 97.1569 156.655 100.379L119.891 113.983C117.153 114.995 114.995 117.153 113.983 119.891L100.379 156.655C97.1569 165.361 84.8431 165.361 81.6215 156.655L68.0175 119.891C67.0046 117.153 64.8465 114.995 62.1093 113.983L25.3451 100.379C16.6389 97.1569 16.6389 84.8431 25.345 81.6215L62.1093 68.0175C64.8465 67.0046 67.0046 64.8465 68.0175 62.1093L81.6215 25.3451Z" fill="black"/>
</g>
<use xlink:href="#pattern0_158_72_inner" transform="translate(-100.1 200.2)"/>
<use xlink:href="#pattern0_158_72_inner" transform="translate(100.1 200.2)"/>
</pattern></defs>
</svg>
