<svg width="48" height="48" viewBox="0 0 48 48" fill="none" xmlns="http://www.w3.org/2000/svg">
<g clip-path="url(#clip0_145_112)">
<path d="M47.7024 23.2791L35.452 11.0287C35.0711 10.6478 34.3971 10.6478 34.0161 11.0287L31.3603 13.6846C30.9636 14.0813 30.9636 14.7243 31.3603 15.121L40.2371 23.9968L31.3608 32.8742C30.9641 33.2708 30.9641 33.9139 31.3608 34.3106L34.0167 36.9664C34.2071 37.1569 34.4656 37.2646 34.7348 37.2646C35.0035 37.2646 35.2626 37.1569 35.453 36.9664L47.7024 24.7165C48.0991 24.3194 48.0991 23.6758 47.7024 23.2791Z" fill="currentColor"/>
<path d="M16.6387 32.8742L7.76337 23.9979L16.6402 15.1221C16.8307 14.9316 16.9378 14.6736 16.9378 14.4039C16.9378 14.1347 16.8312 13.8762 16.6402 13.6857L13.9843 11.0298C13.7938 10.8393 13.5353 10.7322 13.2661 10.7322C12.9969 10.7322 12.7384 10.8393 12.5479 11.0298L0.297023 23.2792C-0.0996587 23.6759 -0.0996587 24.3189 0.297023 24.7161L12.5474 36.966C12.7379 37.1565 12.9964 37.2641 13.2656 37.2641C13.5348 37.2641 13.7933 37.1565 13.9838 36.966L16.6397 34.3101C17.0364 33.9139 17.0364 33.2709 16.6387 32.8742Z" fill="currentColor"/>
<path d="M30.9661 6.90752C30.8371 6.67083 30.6197 6.49509 30.3616 6.4189L28.2086 5.7835C27.6712 5.62401 27.1054 5.93232 26.9469 6.4702L16.9517 40.3192C16.8755 40.5777 16.9049 40.8555 17.0335 41.0917C17.162 41.3289 17.3799 41.5041 17.6379 41.5808L19.7909 42.2162C19.8869 42.2447 19.9839 42.2584 20.0789 42.2584C20.5172 42.2584 20.922 41.9719 21.0526 41.5295L31.0478 7.68005C31.124 7.42153 31.0951 7.1437 30.9661 6.90752Z" fill="currentColor"/>
</g>
<defs>
<clipPath id="clip0_145_112">
<rect width="48" height="48" fill="white"/>
</clipPath>
</defs>
</svg>
