<svg width="48" height="48" viewBox="0 0 48 48" fill="none" xmlns="http://www.w3.org/2000/svg">
<path d="M40.7142 3.42859H7.28561C5.1555 3.42859 3.42847 5.15562 3.42847 7.28573V40.7143C3.42847 42.8444 5.1555 44.5714 7.28561 44.5714H40.7142C42.8443 44.5714 44.5713 42.8444 44.5713 40.7143V7.28573C44.5713 5.15562 42.8443 3.42859 40.7142 3.42859ZM39.1604 6.24109C40.0035 6.24109 40.6872 6.92477 40.6872 7.76787C40.6872 8.61098 40.0035 9.29466 39.1604 9.29466C38.3173 9.29466 37.6336 8.61098 37.6336 7.76787C37.6336 6.92477 38.3173 6.24109 39.1604 6.24109ZM33.4952 6.24109C34.3383 6.24109 35.022 6.92477 35.022 7.76787C35.022 8.61098 34.3383 9.29466 33.4952 9.29466C32.6521 9.29466 31.9684 8.61098 31.9684 7.76787C31.9684 6.92477 32.6521 6.24109 33.4952 6.24109ZM27.83 6.24109C28.6731 6.24109 29.3568 6.92477 29.3568 7.76787C29.3568 8.61098 28.6731 9.29466 27.83 9.29466C26.9869 9.29466 26.3033 8.61098 26.3033 7.76787C26.3033 6.92477 26.9869 6.24109 27.83 6.24109ZM41.357 40.7143C41.357 41.0684 41.0689 41.3572 40.7142 41.3572H7.28561C6.93091 41.3572 6.64275 41.0684 6.64275 40.7143V11.7857H41.357V40.7143Z" fill="currentColor"/>
<path d="M23.3571 18.8572H11.1428V21.4286H23.3571V18.8572Z" fill="currentColor"/>
<path d="M37.5 31.7142H11.1428V34.2857H37.5V31.7142Z" fill="currentColor"/>
<path d="M37.4998 18.8572H27.8569V28.5H37.4998V18.8572Z" fill="currentColor"/>
<path d="M21.8337 27.8572H23.3571V25.2858H11.1428V27.8572H20.548H21.8337Z" fill="currentColor"/>
</svg>
