<svg width="48" height="48" viewBox="0 0 48 48" fill="none" xmlns="http://www.w3.org/2000/svg">
<path fill-rule="evenodd" clip-rule="evenodd" d="M19.8681 4.00013C19.9118 4.00013 19.9557 4.00013 19.9998 4.00013H28.1314C29.9044 4.00003 31.432 3.99995 32.6554 4.16443C33.9664 4.34069 35.2232 4.73817 36.2424 5.75749C37.2618 6.77683 37.6592 8.03353 37.8356 9.34455C38 10.5679 38 12.0955 37.9998 13.8685V34.1317C38 35.9047 38 37.4323 37.8356 38.6557C37.6592 39.9667 37.2618 41.2235 36.2424 42.2427C35.2232 43.2621 33.9664 43.6595 32.6554 43.8359C31.432 44.0003 29.9044 44.0003 28.1314 44.0001H19.8682C18.0952 44.0003 16.5675 44.0003 15.3442 43.8359C14.0332 43.6595 12.7765 43.2621 11.7571 42.2427C10.7378 41.2235 10.3403 39.9667 10.1641 38.6557C9.99958 37.4323 9.99966 35.9047 9.99976 34.1317V14.0001C9.99976 13.9561 9.99976 13.9122 9.99976 13.8685C9.99966 12.0955 9.99958 10.5679 10.1641 9.34455C10.3403 8.03353 10.7378 6.77683 11.7571 5.75749C12.7765 4.73817 14.0332 4.34069 15.3442 4.16443C16.5675 3.99995 18.0951 4.00003 19.8681 4.00013ZM20.9998 36.0001C20.9998 34.8955 21.8952 34.0001 22.9998 34.0001H24.9998C26.1044 34.0001 26.9998 34.8955 26.9998 36.0001C26.9998 37.1047 26.1044 38.0001 24.9998 38.0001H22.9998C21.8952 38.0001 20.9998 37.1047 20.9998 36.0001Z" fill="currentColor"/>
</svg>
