<svg width="654" height="140" viewBox="0 0 654 140" fill="none" xmlns="http://www.w3.org/2000/svg">
<g clip-path="url(#clip0_216_782)">
<path d="M79.6408 7.92173L79.3123 8.8662L79.6408 7.92173ZM126.638 88.8147L126.342 89.77L126.451 89.8034L126.563 89.8119L126.638 88.8147ZM502.088 77.8292L503.048 77.55L502.088 77.8292ZM502.088 138.748L502.587 137.882L502.088 138.748ZM651.985 56.6864C651.891 56.1422 651.374 55.7774 650.83 55.8715L641.961 57.4059C641.417 57.5 641.052 58.0175 641.146 58.5617C641.241 59.1059 641.758 59.4707 642.302 59.3766L650.185 58.0127L651.549 65.8956C651.643 66.4398 652.161 66.8046 652.705 66.7105C653.249 66.6163 653.614 66.0988 653.52 65.5546L651.985 56.6864ZM-290 56.8565L-289.092 57.2746C-288.921 56.9029 -288.716 56.5266 -288.477 56.1458L-289.324 55.614L-290.17 55.0821C-290.452 55.53 -290.698 55.9821 -290.908 56.4384L-290 56.8565ZM-287.419 53.1957L-286.692 53.8825C-286.091 53.246 -285.402 52.6039 -284.626 51.957L-285.267 51.189L-285.907 50.421C-286.735 51.1111 -287.483 51.807 -288.146 52.5089L-287.419 53.1957ZM-282.851 49.3498L-282.277 50.1687C-281.512 49.6326 -280.692 49.0955 -279.817 48.5577L-280.341 47.7058L-280.865 46.854C-281.77 47.4106 -282.624 47.9696 -283.425 48.5309L-282.851 49.3498ZM-277.705 46.1714L-277.221 47.0467C-276.396 46.5906 -275.533 46.1347 -274.634 45.6791L-275.086 44.7871L-275.538 43.8951C-276.457 44.3607 -277.34 44.8277 -278.188 45.2962L-277.705 46.1714ZM-272.256 43.4097L-271.832 44.3153C-270.987 43.9194 -270.115 43.5241 -269.217 43.1294L-269.62 42.2139L-270.022 41.2985C-270.934 41.6993 -271.82 42.1012 -272.68 42.5042L-272.256 43.4097ZM-266.83 41.0235L-266.447 41.9473C-265.523 41.5643 -264.575 41.1821 -263.604 40.8007L-263.969 39.8699L-264.335 38.9391C-265.317 39.3248 -266.277 39.7117 -267.213 40.0997L-266.83 41.0235ZM-261.232 38.8199L-260.881 39.7563C-259.954 39.409 -259.009 39.0625 -258.044 38.7168L-258.382 37.7755L-258.719 36.8342C-259.692 37.1829 -260.647 37.5327 -261.583 37.8836L-261.232 38.8199ZM-255.46 36.7497L-255.135 37.6954C-254.227 37.3834 -253.305 37.0722 -252.369 36.7619L-252.683 35.8127L-252.998 34.8634C-253.941 35.176 -254.87 35.4896 -255.785 35.804L-255.46 36.7497ZM-249.821 34.8811L-249.516 35.8336C-248.552 35.5251 -247.573 35.2175 -246.58 34.9108L-246.875 33.9554L-247.171 32.9999C-248.169 33.3085 -249.154 33.6181 -250.126 33.9287L-249.821 34.8811ZM-244.02 33.0869L-243.733 34.0449C-242.795 33.7641 -241.846 33.4842 -240.886 33.2052L-241.165 32.2449L-241.444 31.2846C-242.409 31.5651 -243.364 31.8465 -244.307 32.1289L-244.02 33.0869ZM-238.245 31.4085L-237.974 32.3709C-236.992 32.0937 -236 31.8175 -234.997 31.5423L-235.261 30.578L-235.526 29.6136C-236.533 29.8901 -237.531 30.1676 -238.517 30.4461L-238.245 31.4085ZM-232.42 29.8081L-232.162 30.7742C-231.208 30.5192 -230.246 30.265 -229.275 30.0118L-229.527 29.0442L-229.78 28.0766C-230.755 28.3308 -231.721 28.586 -232.678 28.8421L-232.42 29.8081ZM-226.584 28.2859L-226.337 29.255C-225.35 29.0038 -224.354 28.7536 -223.35 28.5043L-223.591 27.5338L-223.832 26.5633C-224.84 26.8134 -225.839 27.0646 -226.83 27.3168L-226.584 28.2859ZM-220.723 26.8297L-220.487 27.8015C-219.526 27.5681 -218.558 27.3356 -217.582 27.104L-217.813 26.1311L-218.044 25.1581C-219.023 25.3904 -219.995 25.6237 -220.959 25.8579L-220.723 26.8297ZM-214.863 25.4381L-214.636 26.4122C-213.648 26.1825 -212.652 25.9538 -211.65 25.7261L-211.872 24.751L-212.094 23.7758C-213.098 24.0042 -214.097 24.2336 -215.089 24.464L-214.863 25.4381ZM-208.958 24.0954L-208.741 25.0715C-207.775 24.8566 -206.804 24.6425 -205.828 24.4295L-206.041 23.4524L-206.254 22.4754C-207.233 22.6891 -208.207 22.9037 -209.175 23.1193L-208.958 24.0954ZM-203.091 22.8152L-202.882 23.793C-201.894 23.5819 -200.902 23.3717 -199.904 23.1624L-200.109 22.1837L-200.314 21.205C-201.315 21.4148 -202.31 21.6255 -203.3 21.8373L-203.091 22.8152ZM-197.139 21.5669L-196.937 22.5464C-195.97 22.3475 -194.998 22.1495 -194.021 21.9524L-194.219 20.9722L-194.417 19.9919C-195.396 20.1895 -196.37 20.388 -197.34 20.5874L-197.139 21.5669ZM-191.273 20.3832L-191.078 21.3641C-190.093 21.169 -189.104 20.9748 -188.11 20.7816L-188.301 19.8L-188.491 18.8184C-189.487 19.012 -190.479 19.2066 -191.467 19.4022L-191.273 20.3832ZM-185.304 19.2228L-185.116 20.2051C-184.138 20.0185 -183.156 19.8328 -182.171 19.6482L-182.355 18.6653L-182.539 17.6824C-183.527 17.8675 -184.511 18.0535 -185.491 18.2405L-185.304 19.2228ZM-179.412 18.1188L-179.231 19.1022C-178.248 18.9212 -177.261 18.7412 -176.27 18.5622L-176.448 17.5781L-176.626 16.5941C-177.618 16.7735 -178.608 16.9539 -179.593 17.1353L-179.412 18.1188ZM-173.464 17.0435L-173.289 18.0281C-172.293 17.8511 -171.292 17.6751 -170.289 17.5002L-170.461 16.515L-170.633 15.5299C-171.638 15.7052 -172.64 15.8816 -173.639 16.0589L-173.464 17.0435ZM-167.515 16.0057L-167.346 16.9914C-166.364 16.823 -165.378 16.6557 -164.39 16.4893L-164.556 15.5032L-164.722 14.5171C-165.712 14.6837 -166.699 14.8514 -167.684 15.0201L-167.515 16.0057ZM-161.582 15.0067L-161.419 15.9933C-160.425 15.829 -159.43 15.6658 -158.432 15.5035L-158.592 14.5165L-158.752 13.5294C-159.752 13.692 -160.75 13.8555 -161.745 14.0201L-161.582 15.0067ZM-155.59 14.0329L-155.432 15.0204C-154.449 14.8635 -153.465 14.7077 -152.478 14.5529L-152.633 13.5649L-152.787 12.577C-153.776 12.7321 -154.763 12.8882 -155.747 13.0454L-155.59 14.0329ZM-149.663 13.1032L-149.51 14.0916C-148.519 13.9388 -147.526 13.7872 -146.532 13.6366L-146.681 12.6478L-146.831 11.6591C-147.828 11.81 -148.822 11.9619 -149.815 12.1149L-149.663 13.1032ZM-143.688 12.1989L-143.541 13.188C-142.543 13.0396 -141.543 12.8923 -140.542 12.7461L-140.686 11.7566L-140.831 10.7671C-141.834 10.9135 -142.836 11.0611 -143.835 11.2097L-143.688 12.1989ZM-137.716 11.3269L-137.575 12.3168C-136.584 12.1748 -135.592 12.0339 -134.598 11.8941L-134.738 10.9038L-134.877 9.91358C-135.872 10.0536 -136.866 10.1948 -137.858 10.3371L-137.716 11.3269ZM-131.751 10.4873L-131.614 11.4779C-130.618 11.3403 -129.621 11.2038 -128.622 11.0684L-128.757 10.0775L-128.891 9.08653C-129.891 9.22213 -130.89 9.35886 -131.888 9.49671L-131.751 10.4873ZM-125.755 9.67441L-125.624 10.6657C-124.631 10.5337 -123.638 10.4028 -122.643 10.273L-122.773 9.28144L-122.902 8.28985C-123.898 8.41981 -124.893 8.55091 -125.887 8.68314L-125.755 9.67441ZM-119.786 8.89551L-119.659 9.88743C-118.663 9.76004 -117.667 9.6338 -116.67 9.50873L-116.794 8.51651L-116.919 7.52428C-117.918 7.64956 -118.916 7.776 -119.913 7.9036L-119.786 8.89551ZM-113.799 8.14451L-113.677 9.13704C-112.678 9.01432 -111.679 8.89278 -110.68 8.77244L-110.8 7.77961L-110.919 6.78678C-111.92 6.90732 -112.921 7.02906 -113.921 7.15198L-113.799 8.14451ZM-107.805 7.4228L-107.688 8.41592C-106.691 8.29835 -105.694 8.18198 -104.696 8.06683L-104.811 7.07343L-104.925 6.08002C-105.925 6.19536 -106.924 6.31191 -107.922 6.42968L-107.805 7.4228ZM-101.814 6.73137L-101.702 7.72505C-100.704 7.61235 -99.7057 7.50089 -98.7073 7.39066L-98.8171 6.3967L-98.9268 5.40274C-99.9268 5.51315 -100.927 5.6248 -101.926 5.73768L-101.814 6.73137ZM-95.8196 6.06952L-95.7123 7.06375C-94.7124 6.95587 -93.7126 6.84925 -92.7129 6.74391L-92.8177 5.74941L-92.9225 4.75492C-93.9238 4.86043 -94.9253 4.96723 -95.9268 5.07529L-95.8196 6.06952ZM-89.8145 5.43674L-89.7122 6.43149C-88.7122 6.32865 -87.7125 6.22709 -86.7132 6.12685L-86.813 5.13184L-86.9128 4.13684C-87.9138 4.23725 -88.9152 4.33897 -89.9168 4.44199L-89.8145 5.43674ZM-83.8137 4.83481L-83.7164 5.83007C-82.718 5.73246 -81.72 5.63618 -80.7227 5.54123L-80.8174 4.54574L-80.9122 3.55024C-81.9112 3.64534 -82.9109 3.74179 -83.911 3.83956L-83.8137 4.83481ZM-77.812 4.26352L-77.7198 5.25926C-76.7158 5.16628 -75.7126 5.07469 -74.7102 4.98448L-74.7998 3.9885L-74.8895 2.99253C-75.8936 3.08289 -76.8985 3.17465 -77.9042 3.26778L-77.812 4.26352ZM-71.7926 3.72183L-71.7056 4.71804C-70.705 4.63062 -69.7053 4.54461 -68.7066 4.46002L-68.791 3.46359L-68.8754 2.46716C-69.8758 2.5519 -70.8773 2.63806 -71.8797 2.72563L-71.7926 3.72183ZM-65.7958 3.21387L-65.714 4.21053C-64.7116 4.12829 -63.7103 4.04751 -62.7103 3.9682L-62.7893 2.97133L-62.8684 1.97446C-63.8702 2.05392 -64.8733 2.13484 -65.8775 2.21722L-65.7958 3.21387ZM-59.768 2.73586L-59.6916 3.73294C-58.6868 3.65602 -57.6834 3.5806 -56.6815 3.50671L-56.7551 2.50942L-56.8286 1.51213C-57.8324 1.58616 -58.8376 1.66171 -59.8443 1.73878L-59.768 2.73586ZM-53.7514 2.2921L-53.6806 3.28959C-52.682 3.21875 -51.685 3.14944 -50.6897 3.08169L-50.7576 2.084L-50.8255 1.08631C-51.8227 1.15419 -52.8216 1.22363 -53.8222 1.2946L-53.7514 2.2921ZM-47.7499 1.88361L-47.6849 2.88149C-46.6738 2.81561 -45.6647 2.75135 -44.6576 2.68874L-44.7197 1.69067L-44.7817 0.692594C-45.7908 0.75533 -46.8019 0.819712 -47.8149 0.885724L-47.7499 1.88361ZM-41.702 1.5076L-41.6429 2.50586C-40.6402 2.44655 -39.6397 2.38891 -38.6415 2.33294L-38.6974 1.33451L-38.7534 0.336077C-39.7537 0.39216 -40.7563 0.449922 -41.761 0.509347L-41.702 1.5076ZM-35.7068 1.17149L-35.6539 2.17009C-34.6478 2.11682 -33.6441 2.06528 -32.6431 2.01551L-32.6928 1.01674L-32.7425 0.0179739C-33.7456 0.0678598 -34.7514 0.119502 -35.7597 0.172885L-35.7068 1.17149ZM-29.6556 0.870718L-29.6092 1.86964C-28.6007 1.82283 -27.595 1.77784 -26.5923 1.73469L-26.6353 0.73561L-26.6783 -0.263465C-27.6833 -0.220211 -28.6912 -0.175119 -29.702 -0.128207L-29.6556 0.870718ZM-23.6329 0.611524L-23.5933 1.61074C-22.5967 1.57127 -21.6032 1.53366 -20.6129 1.49792L-20.649 0.498566L-20.6851 -0.500783C-21.6777 -0.464954 -22.6736 -0.427252 -23.6725 -0.387693L-23.6329 0.611524ZM-17.6174 0.394662L-17.585 1.39414C-16.5692 1.36119 -15.5569 1.33026 -14.5484 1.30136L-14.5771 0.301767L-14.6057 -0.697822C-15.6168 -0.668851 -16.6315 -0.637841 -17.6498 -0.604812L-17.6174 0.394662ZM-11.5591 0.221088L-11.5344 1.22078C-10.5335 1.19597 -9.53656 1.17321 -8.54364 1.15253L-8.56445 0.152742L-8.5853 -0.847041C-9.58087 -0.826299 -10.5805 -0.803481 -11.5839 -0.778604L-11.5591 0.221088ZM-5.58887 0.0967616L-5.57211 1.09662C-4.5477 1.07944 -3.5278 1.06452 -2.5126 1.05189L-2.52505 0.0519708L-2.53748 -0.947952C-3.5556 -0.935285 -4.57837 -0.920326 -5.60565 -0.903098L-5.58887 0.0967616ZM0.510803 0.0209118L0.518799 1.02088C1.52444 1.01284 2.52527 1.00711 3.52106 1.00371L3.51764 0.00371661L3.51422 -0.996278C2.51532 -0.992866 1.51147 -0.987118 0.502808 -0.979056L0.510803 0.0209118ZM6.49451 0.000516338L6.49319 1.00052C7.50632 1.00183 8.51392 1.00563 9.5159 1.01193L9.52219 0.0119514L9.52847 -0.988029C8.52313 -0.994355 7.51218 -0.998165 6.49579 -0.999483L6.49451 0.000516338ZM12.5762 0.0391469L12.5647 1.03908C13.5749 1.05076 14.5791 1.06506 15.577 1.08203L15.594 0.0821777L15.611 -0.917678C14.6094 -0.934709 13.6016 -0.94907 12.5878 -0.960786L12.5762 0.0391469ZM18.5743 0.141195L18.5517 1.14094C19.5547 1.16365 20.5511 1.18915 21.5406 1.21746L21.5692 0.217864L21.5977 -0.781727C20.6042 -0.810147 19.6039 -0.835745 18.597 -0.858548L18.5743 0.141195ZM24.6379 0.315441L24.6029 1.31483C25.6161 1.35034 26.6216 1.38891 27.6192 1.43057L27.6609 0.431438L27.7026 -0.567691C26.7005 -0.609542 25.6905 -0.648283 24.6729 -0.683946L24.6379 0.315441ZM30.6368 0.566037L30.5881 1.56485C31.589 1.61366 32.5814 1.66571 33.5652 1.72104L33.6213 0.722614L33.6775 -0.275808C32.6887 -0.331418 31.6913 -0.38373 30.6856 -0.432776L30.6368 0.566037ZM36.6945 0.907935L36.6302 1.90586C37.6421 1.97109 38.6442 2.03995 39.6363 2.11248L39.7092 1.11514L39.7821 0.117806C38.7842 0.0448492 37.7764 -0.0244046 36.7588 -0.0899941L36.6945 0.907935ZM42.6637 1.34446L42.5817 2.34109C43.5943 2.42436 44.5955 2.51164 45.5852 2.60298L45.6771 1.60722L45.769 0.611449C44.7725 0.519478 43.7646 0.431617 42.7456 0.347822L42.6637 1.34446ZM48.7315 1.90582L48.6287 2.90051C49.6304 3.00409 50.6194 3.11207 51.5951 3.22451L51.7096 2.23108L51.824 1.23765C50.8403 1.1243 49.8436 1.01547 48.8344 0.911119L48.7315 1.90582ZM54.6186 2.58449L54.4917 3.5764C55.5323 3.70954 56.5566 3.84808 57.5641 3.99208L57.7056 3.00214L57.8471 2.0122C56.8295 1.86676 55.7955 1.72691 54.7455 1.59257L54.6186 2.58449ZM60.6931 3.45289L60.5359 4.44046C61.5094 4.5954 62.4657 4.75584 63.4042 4.92182L63.5784 3.93711L63.7525 2.95239C62.8022 2.78432 61.8347 2.62199 60.8503 2.46532L60.6931 3.45289ZM66.6263 4.50795L66.4319 5.48886C67.4339 5.68751 68.4132 5.89309 69.3693 6.10566L69.5863 5.1295L69.8034 4.15334C68.8316 3.93726 67.8372 3.72853 66.8207 3.52704L66.6263 4.50795ZM72.4115 5.79486L72.1695 6.76514C73.2017 7.02259 74.2028 7.28909 75.1719 7.56471L75.4454 6.60286L75.719 5.64101C74.7277 5.35906 73.7055 5.08698 72.6535 4.82459L72.4115 5.79486ZM78.2909 7.46782L77.9818 8.41884C78.4336 8.56569 78.8771 8.71481 79.3123 8.8662L79.6408 7.92173L79.9695 6.97726C79.5209 6.82122 79.0644 6.66774 78.6001 6.5168L78.2909 7.46782ZM79.6408 7.92173L79.3123 8.8662C79.8109 9.03968 80.3 9.21439 80.7799 9.3903L81.1241 8.4514L81.4683 7.51249C80.9778 7.3327 80.4782 7.15429 79.9695 6.97726L79.6408 7.92173ZM83.9259 9.53376L83.5486 10.4599C84.5047 10.8493 85.4189 11.2441 86.2927 11.6438L86.7087 10.7344L87.1246 9.82503C86.2239 9.41305 85.2839 9.00721 84.3032 8.60765L83.9259 9.53376ZM89.3663 12.0271L88.9065 12.9151C89.8344 13.3956 90.709 13.8824 91.5331 14.375L92.0462 13.5167L92.5593 12.6583C91.6984 12.1437 90.7882 11.6372 89.8262 11.1391L89.3663 12.0271ZM94.5693 15.1478L93.9953 15.9667C94.8231 16.5469 95.5875 17.134 96.2928 17.727L96.9364 16.9617L97.58 16.1963C96.8275 15.5635 96.0164 14.941 95.1433 14.3289L94.5693 15.1478ZM99.1322 19.0121L98.4104 19.7042C99.1091 20.433 99.7294 21.1698 100.279 21.9134L101.083 21.3194L101.887 20.7253C101.286 19.9104 100.61 19.1083 99.8541 18.3201L99.1322 19.0121ZM102.694 23.8625L101.812 24.334C102.273 25.1951 102.653 26.0664 102.963 26.9472L103.906 26.6154L104.85 26.2835C104.507 25.3083 104.085 24.3434 103.576 23.3909L102.694 23.8625ZM104.691 29.5222L103.709 29.7122C103.892 30.6542 104.008 31.6083 104.068 32.5738L105.066 32.5117L106.064 32.4497C105.999 31.4059 105.873 30.3659 105.673 29.3321L104.691 29.5222ZM105.089 35.524L104.09 35.4814C104.049 36.4469 103.963 37.4216 103.842 38.4048L104.835 38.5268L105.827 38.6489C105.953 37.6208 106.044 36.5926 106.088 35.5667L105.089 35.524ZM104.376 41.5068L103.392 41.3287C103.217 42.2973 103.018 43.2711 102.804 44.2496L103.78 44.4635L104.757 44.6773C104.975 43.6816 105.18 42.6833 105.36 41.685L104.376 41.5068ZM103.104 47.4035L102.132 47.172C101.897 48.1563 101.664 49.117 101.428 50.1051L102.401 50.3373L103.374 50.5694C103.604 49.6039 103.846 48.6078 104.077 47.6349L103.104 47.4035ZM101.721 53.2765L100.745 53.0608C100.524 54.0578 100.318 55.0556 100.135 56.0514L101.118 56.2321L102.102 56.4128C102.279 55.4463 102.481 54.4727 102.697 53.4923L101.721 53.2765ZM100.653 59.2113L99.6603 59.0871C99.5314 60.1177 99.4391 61.1466 99.3955 62.1712L100.395 62.2138L101.394 62.2563C101.435 61.2942 101.522 60.3204 101.645 59.3355L100.653 59.2113ZM100.424 65.2252L99.4266 65.2922C99.4969 66.3392 99.6322 67.3802 99.8459 68.4124L100.825 68.2096L101.804 68.0068C101.611 67.0721 101.487 66.1224 101.422 65.1582L100.424 65.2252ZM101.663 71.1036L100.728 71.4575C101.094 72.426 101.544 73.381 102.087 74.3204L102.953 73.8197L103.818 73.319C103.33 72.4749 102.927 71.6182 102.598 70.7497L101.663 71.1036ZM104.656 76.2998L103.877 76.9259C104.51 77.7142 105.219 78.4873 106.012 79.2442L106.702 78.5211L107.393 77.798C106.661 77.0991 106.012 76.3906 105.436 75.6737L104.656 76.2998ZM108.99 80.4739L108.381 81.2673C109.159 81.864 109.996 82.4492 110.896 83.0226L111.433 82.1793L111.971 81.336C111.117 80.7918 110.328 80.2397 109.599 79.6804L108.99 80.4739ZM114.023 83.6986L113.546 84.578C114.427 85.0547 115.356 85.5226 116.338 85.9814L116.761 85.0755L117.185 84.1695C116.237 83.7264 115.342 83.2762 114.499 82.8193L114.023 83.6986ZM119.471 86.2627L119.09 87.1875C120.005 87.5637 120.959 87.9332 121.953 88.2959L122.296 87.3565L122.638 86.417C121.668 86.0631 120.739 85.7032 119.851 85.3379L119.471 86.2627ZM125.136 88.337L124.825 89.2875C125.322 89.4498 125.828 89.6106 126.342 89.77L126.638 88.8147L126.934 87.8594C126.429 87.7031 125.933 87.5454 125.447 87.3865L125.136 88.337ZM126.638 88.8147L126.563 89.8119C127.046 89.848 127.531 89.8841 128.017 89.9203L128.091 88.9231L128.165 87.9258C127.679 87.8897 127.195 87.8535 126.713 87.8175L126.638 88.8147ZM131.029 89.1402L130.956 90.1375C131.942 90.21 132.935 90.2826 133.935 90.3552L134.008 89.3578L134.08 88.3604C133.081 88.2878 132.088 88.2153 131.102 88.1429L131.029 89.1402ZM137.027 89.5756L136.955 90.573C137.951 90.6445 138.954 90.716 139.963 90.7875L140.034 89.79L140.105 88.7925C139.096 88.7211 138.094 88.6496 137.098 88.5782L137.027 89.5756ZM142.971 89.997L142.901 90.9945C143.886 91.0635 144.877 91.1325 145.873 91.2015L145.942 90.2039L146.011 89.2063C145.015 89.1373 144.025 89.0684 143.041 88.9994L142.971 89.997ZM148.945 90.4107L148.877 91.4083C149.884 91.4772 150.896 91.5461 151.913 91.6149L151.98 90.6172L152.048 89.6194C151.031 89.5507 150.02 89.4818 149.013 89.413L148.945 90.4107ZM154.923 90.8151L154.856 91.8129C155.839 91.8786 156.826 91.9442 157.817 92.0098L157.883 91.0119L157.949 90.0141C156.958 89.9486 155.972 89.883 154.99 89.8173L154.923 90.8151ZM160.87 91.2083L160.805 92.2062C161.805 92.2716 162.81 92.3369 163.819 92.402L163.883 91.4041L163.948 90.4062C162.939 90.341 161.935 90.2758 160.935 90.2104L160.87 91.2083ZM166.886 91.597L166.822 92.5949C167.802 92.6575 168.785 92.7199 169.773 92.7823L169.836 91.7843L169.899 90.7862C168.912 90.724 167.929 90.6615 166.95 90.599L166.886 91.597ZM172.808 91.9708L172.746 92.9689C173.74 93.0309 174.738 93.0928 175.74 93.1546L175.802 92.1565L175.863 91.1584C174.862 91.0967 173.864 91.0348 172.87 90.9727L172.808 91.9708ZM178.816 92.3413L178.755 93.3395C179.747 93.3999 180.742 93.4602 181.74 93.5202L181.8 92.5221L181.86 91.5239C180.863 91.4638 179.868 91.4036 178.877 91.3432L178.816 92.3413ZM184.76 92.6992L184.701 93.6975C185.69 93.7564 186.683 93.8151 187.679 93.8736L187.738 92.8754L187.796 91.8771C186.801 91.8186 185.809 91.7599 184.819 91.701L184.76 92.6992ZM190.733 93.0503L190.675 94.0487C191.676 94.1068 192.68 94.1647 193.687 94.2225L193.744 93.2241L193.801 92.2258C192.795 92.1681 191.791 92.1101 190.791 92.052L190.733 93.0503ZM196.725 93.394L196.668 94.3924C197.654 94.4482 198.643 94.5039 199.635 94.5593L199.69 93.5609L199.746 92.5624C198.756 92.507 197.767 92.4514 196.781 92.3956L196.725 93.394ZM202.67 93.7265L202.615 94.7249C203.611 94.7799 204.609 94.8347 205.61 94.8892L205.664 93.8906L205.718 92.8921C204.719 92.8376 203.721 92.7829 202.726 92.728L202.67 93.7265ZM208.671 94.0534L208.617 95.0519C209.61 95.1053 210.605 95.1585 211.603 95.2114L211.655 94.2128L211.708 93.2142C210.712 93.1613 209.717 93.1082 208.724 93.0548L208.671 94.0534ZM214.625 94.3692L214.573 95.3678C215.565 95.4197 216.559 95.4714 217.555 95.5227L217.606 94.5241L217.658 93.5254C216.662 93.4741 215.669 93.4224 214.678 93.3706L214.625 94.3692ZM220.597 94.6773L220.546 95.676C221.545 95.7268 222.546 95.7773 223.548 95.8276L223.598 94.8288L223.648 93.8301C222.647 93.7799 221.646 93.7294 220.648 93.6786L220.597 94.6773ZM226.59 94.9777L226.541 95.9764C227.531 96.0253 228.522 96.0739 229.515 96.1222L229.563 95.1234L229.612 94.1245C228.62 94.0763 227.629 94.0277 226.639 93.9789L226.59 94.9777ZM232.545 95.2673L232.497 96.2661C233.492 96.3138 234.489 96.3611 235.486 96.4082L235.534 95.4093L235.581 94.4104C234.583 94.3634 233.587 94.316 232.592 94.2684L232.545 95.2673ZM238.529 95.5493L238.483 96.5483C239.481 96.5946 240.481 96.6405 241.481 96.6861L241.527 95.6872L241.572 94.6882C240.572 94.6426 239.574 94.5967 238.576 94.5504L238.529 95.5493ZM244.504 95.8218L244.459 96.8208C245.452 96.8653 246.447 96.9095 247.442 96.9534L247.486 95.9544L247.53 94.9553C246.535 94.9115 245.542 94.8673 244.548 94.8228L244.504 95.8218ZM250.474 96.0848L250.43 97.0838C251.427 97.127 252.425 97.1697 253.423 97.2121L253.465 96.213L253.508 95.2139C252.51 95.1716 251.513 95.1288 250.517 95.0857L250.474 96.0848ZM256.461 96.3391L256.42 97.3382C257.414 97.3796 258.409 97.4207 259.404 97.4613L259.445 96.4622L259.486 95.463C258.491 95.4223 257.497 95.3813 256.503 95.3399L256.461 96.3391ZM262.43 96.5828L262.39 97.582C263.385 97.6219 264.382 97.6613 265.378 97.7004L265.417 96.7012L265.456 95.7019C264.46 95.6629 263.465 95.6235 262.47 95.5836L262.43 96.5828ZM268.406 96.8171L268.368 97.8163C269.365 97.8546 270.362 97.8924 271.36 97.9298L271.397 96.9305L271.435 95.9312C270.438 95.8938 269.441 95.856 268.445 95.8178L268.406 96.8171ZM274.387 97.0413L274.35 98.0406C275.346 98.0771 276.343 98.1132 277.339 98.1488L277.375 97.1494L277.411 96.1501C276.415 96.1145 275.419 96.0784 274.423 96.0419L274.387 97.0413ZM280.364 97.2549L280.329 98.2543C281.325 98.2891 282.322 98.3234 283.318 98.3572L283.352 97.3578L283.386 96.3584C282.39 96.3245 281.394 96.2903 280.398 96.2556L280.364 97.2549ZM286.339 97.4579L286.306 98.4573C287.303 98.4902 288.299 98.5227 289.295 98.5547L289.327 97.5552L289.359 96.5557C288.364 96.5238 287.368 96.4913 286.372 96.4584L286.339 97.4579ZM292.321 97.6499L292.29 98.6494C293.287 98.6805 294.285 98.7112 295.282 98.7413L295.312 97.7417L295.342 96.7422C294.346 96.7121 293.349 96.6815 292.352 96.6504L292.321 97.6499ZM298.301 97.8306L298.272 98.8301C299.268 98.8592 300.263 98.8878 301.258 98.9159L301.286 97.9163L301.315 96.9167C300.32 96.8887 299.325 96.8601 298.33 96.831L298.301 97.8306ZM304.268 97.999L304.241 98.9987C305.241 99.0259 306.241 99.0526 307.24 99.0788L307.266 98.0791L307.292 97.0795C306.294 97.0533 305.295 97.0266 304.295 96.9994L304.268 97.999ZM310.262 98.156L310.237 99.1557C311.235 99.1808 312.232 99.2054 313.229 99.2294L313.253 98.2296L313.277 97.2299C312.281 97.206 311.285 97.1814 310.287 97.1564L310.262 98.156ZM316.238 98.2999L316.215 99.2996C317.209 99.3225 318.202 99.3448 319.194 99.3665L319.216 98.3667L319.238 97.367C318.247 97.3453 317.254 97.323 316.261 97.3002L316.238 98.2999ZM322.211 98.4306L322.19 99.4303C323.193 99.4511 324.193 99.4713 325.193 99.4909L325.213 98.4911L325.232 97.4913C324.233 97.4717 323.233 97.4515 322.232 97.4308L322.211 98.4306ZM328.206 98.5479L328.188 99.5478C329.185 99.5661 330.18 99.5838 331.174 99.6009L331.192 98.601L331.209 97.6012C330.215 97.5841 329.221 97.5664 328.225 97.5481L328.206 98.5479ZM334.168 98.6504L334.152 99.6502C335.15 99.6662 336.146 99.6814 337.141 99.6961L337.156 98.6962L337.171 97.6963C336.177 97.6817 335.181 97.6664 334.184 97.6505L334.168 98.6504ZM340.164 98.7384L340.151 99.7383C341.152 99.7517 342.151 99.7644 343.149 99.7764L343.161 98.7765L343.173 97.7766C342.176 97.7646 341.178 97.7519 340.177 97.7385L340.164 98.7384ZM346.147 98.8105L346.137 99.8104C347.13 99.821 348.122 99.831 349.112 99.8402L349.121 98.8402L349.131 97.8402C348.142 97.8311 347.151 97.8211 346.158 97.8105L346.147 98.8105ZM352.102 98.8658L352.094 99.8658C353.102 99.8737 354.107 99.8809 355.11 99.8873L355.117 98.8873L355.123 97.8873C354.121 97.8809 353.117 97.8738 352.11 97.8658L352.102 98.8658ZM358.117 98.9042L358.112 99.9042C359.111 99.909 360.107 99.9131 361.1 99.9164L361.103 98.9164L361.107 97.9164C360.114 97.9131 359.119 97.909 358.122 97.9042L358.117 98.9042ZM364.074 98.9239L364.073 99.9239C365.068 99.9256 366.061 99.9265 367.052 99.9265L367.052 98.9265L367.052 97.9265C366.063 97.9265 365.071 97.9256 364.076 97.9239L364.074 98.9239ZM370.072 98.9242L370.074 99.9242C371.078 99.9225 372.079 99.92 373.078 99.9166L373.074 98.9166L373.071 97.9166C372.074 97.92 371.073 97.9225 370.07 97.9242L370.072 98.9242ZM376.058 98.9037L376.063 99.9037C377.056 99.8985 378.045 99.8924 379.03 99.8854L379.023 98.8854L379.016 97.8855C378.032 97.8924 377.044 97.8985 376.053 97.9037L376.058 98.9037ZM382.007 98.8614L382.016 99.8614C383.028 99.8523 384.037 99.8421 385.042 99.831L385.03 98.8311L385.019 97.8312C384.016 97.8423 383.009 97.8523 381.998 97.8615L382.007 98.8614ZM388.031 98.7948L388.044 99.7947C389.041 99.7816 390.035 99.7675 391.024 99.7524L391.009 98.7525L390.993 97.7526C390.005 97.7677 389.014 97.7818 388.018 97.7949L388.031 98.7948ZM393.962 98.7041L393.98 99.7039C394.988 99.6863 395.992 99.6675 396.991 99.6477L396.971 98.6479L396.951 97.6481C395.954 97.6679 394.951 97.6866 393.945 97.7042L393.962 98.7041ZM399.991 98.5842L400.013 99.584C401.016 99.5616 402.015 99.538 403.008 99.5134L402.983 98.5137L402.958 97.514C401.967 97.5386 400.97 97.5621 399.969 97.5844L399.991 98.5842ZM405.946 98.4362L405.974 99.4358C406.964 99.4086 407.95 99.3802 408.93 99.3505L408.9 98.351L408.87 97.3515C407.891 97.381 406.907 97.4094 405.919 97.4365L405.946 98.4362ZM411.94 98.2547L411.974 99.2542C412.982 99.2207 413.986 99.1859 414.983 99.1498L414.947 98.1505L414.911 97.1511C413.915 97.1872 412.914 97.2219 411.907 97.2553L411.94 98.2547ZM417.918 98.0382L417.958 99.0374C418.943 98.9986 419.923 98.9584 420.897 98.9169L420.854 97.9178L420.811 96.9187C419.84 96.9602 418.862 97.0002 417.879 97.039L417.918 98.0382ZM423.884 97.7831L423.93 98.782C424.944 98.7351 425.951 98.6866 426.952 98.6365L426.902 97.6378L426.852 96.639C425.854 96.689 424.849 96.7373 423.837 96.7841L423.884 97.7831ZM429.877 97.483L429.931 98.4816C430.916 98.4283 431.895 98.3735 432.865 98.3171L432.807 97.3187L432.749 96.3204C431.781 96.3767 430.806 96.4314 429.823 96.4845L429.877 97.483ZM435.827 97.1364L435.889 98.1345C436.907 98.0707 437.916 98.0051 438.916 97.9375L438.848 96.9398L438.781 95.9421C437.784 96.0094 436.779 96.0748 435.764 96.1384L435.827 97.1364ZM441.816 96.732L441.888 97.7293C442.87 97.658 443.843 97.5848 444.806 97.5097L444.728 96.5127L444.651 95.5157C443.691 95.5906 442.722 95.6635 441.743 95.7346L441.816 96.732ZM447.773 96.2661L447.856 97.2626C448.872 97.1772 449.876 97.0896 450.87 96.9996L450.779 96.0037L450.689 95.0078C449.7 95.0973 448.7 95.1846 447.689 95.2696L447.773 96.2661ZM453.718 95.7275L453.815 96.7228C454.811 96.6257 455.795 96.5261 456.766 96.424L456.661 95.4295L456.557 94.435C455.591 94.5365 454.612 94.6356 453.621 94.7322L453.718 95.7275ZM459.705 95.0967L459.818 96.0903C460.821 95.9763 461.81 95.8593 462.784 95.7395L462.662 94.747L462.54 93.7544C461.572 93.8735 460.589 93.9897 459.592 94.1031L459.705 95.0967ZM465.534 94.3793L465.666 95.3706C466.711 95.2315 467.737 95.0887 468.745 94.9423L468.601 93.9527L468.457 92.9631C467.458 93.1083 466.439 93.25 465.402 93.3881L465.534 94.3793ZM471.554 93.5044L471.711 94.492C472.687 94.3371 473.643 94.1785 474.579 94.016L474.408 93.0307L474.237 92.0454C473.311 92.2062 472.364 92.3633 471.397 92.5167L471.554 93.5044ZM477.461 92.4733L477.65 93.4553C478.648 93.2635 479.62 93.0668 480.566 92.865L480.357 91.887L480.148 90.909C479.217 91.1078 478.258 91.3019 477.272 91.4913L477.461 92.4733ZM483.267 91.2299L483.499 92.2025C484.526 91.957 485.516 91.7045 486.469 91.4449L486.207 90.48L485.944 89.5152C485.012 89.7689 484.042 90.0163 483.034 90.2574L483.267 91.2299ZM488.995 89.6668L489.294 90.6211C490.336 90.2948 491.326 89.9579 492.261 89.6099L491.912 88.6727L491.563 87.7355C490.665 88.0699 489.709 88.3955 488.696 88.7125L488.995 89.6668ZM494.621 87.5605L495.035 88.4707C496.043 88.0124 496.968 87.5347 497.805 87.0365L497.293 86.1772L496.782 85.3179C496.018 85.7729 495.159 86.2172 494.207 86.6503L494.621 87.5605ZM499.747 84.4204L500.41 85.1693C501.292 84.3887 502.002 83.5479 502.502 82.64L501.626 82.1574L500.75 81.6748C500.384 82.3403 499.835 83.0075 499.084 83.6714L499.747 84.4204ZM502.332 79.3537L503.332 79.3282C503.317 78.7392 503.221 78.1459 503.048 77.55L502.088 77.8292L501.127 78.1085C501.256 78.5517 501.322 78.9745 501.333 79.3793L502.332 79.3537ZM502.088 77.8292L503.048 77.55C502.892 77.0138 502.735 76.507 502.576 76.0289L501.627 76.3435L500.678 76.6581C500.828 77.1108 500.978 77.5939 501.127 78.1085L502.088 77.8292ZM500.56 73.6055L501.466 73.1818C500.911 71.9954 500.319 71.0641 499.672 70.4208L498.967 71.1296L498.261 71.8384C498.675 72.2505 499.149 72.9491 499.655 74.0292L500.56 73.6055ZM496.36 70.7482L495.791 69.9255C494.968 70.4944 494.273 71.4602 493.677 72.6112L494.565 73.0713L495.452 73.5313C495.994 72.4869 496.504 71.8641 496.928 71.5709L496.36 70.7482ZM493.423 75.8053L492.477 75.479C492.171 76.368 491.88 77.3407 491.608 78.3844L492.576 78.6367L493.544 78.8889C493.805 77.8866 494.081 76.9641 494.368 76.1316L493.423 75.8053ZM491.907 81.5268L490.928 81.3256C490.734 82.2706 490.552 83.2577 490.385 84.2806L491.371 84.4423L492.358 84.6039C492.522 83.6055 492.698 82.6448 492.887 81.7279L491.907 81.5268ZM490.943 87.3729L489.951 87.2443C489.826 88.2118 489.712 89.2038 489.611 90.2159L490.606 90.3152L491.601 90.4145C491.7 89.4214 491.812 88.449 491.934 87.5015L490.943 87.3729ZM490.352 93.267L489.355 93.1948C489.284 94.1768 489.224 95.1729 489.178 96.1797L490.177 96.226L491.176 96.2723C491.221 95.2827 491.28 94.3039 491.35 93.3393L490.352 93.267ZM490.077 99.189L489.078 99.1683C489.057 100.159 489.049 101.156 489.054 102.157L490.054 102.152L491.054 102.147C491.049 101.164 491.057 100.183 491.077 99.2098L490.077 99.189ZM490.108 105.111L489.108 105.143C489.139 106.139 489.184 107.136 489.244 108.13L490.242 108.07L491.24 108.011C491.182 107.036 491.138 106.058 491.107 105.08L490.108 105.111ZM490.462 111.025L489.466 111.115C489.555 112.114 489.66 113.108 489.782 114.093L490.774 113.971L491.767 113.849C491.648 112.887 491.546 111.915 491.458 110.936L490.462 111.025ZM491.188 116.902L490.201 117.061C490.361 118.058 490.539 119.043 490.736 120.011L491.716 119.812L492.695 119.613C492.504 118.673 492.331 117.716 492.175 116.744L491.188 116.902ZM492.373 122.693L491.404 122.939C491.657 123.932 491.932 124.903 492.232 125.846L493.185 125.543L494.138 125.241C493.851 124.337 493.586 123.404 493.342 122.446L492.373 122.693ZM494.177 128.334L493.248 128.704C493.632 129.671 494.047 130.6 494.495 131.485L495.387 131.034L496.28 130.583C495.862 129.756 495.471 128.881 495.106 127.965L494.177 128.334ZM496.863 133.593L496.028 134.144C496.616 135.034 497.249 135.862 497.931 136.615L498.672 135.944L499.414 135.273C498.807 134.603 498.235 133.857 497.698 133.042L496.863 133.593ZM500.856 137.939L500.26 138.743C500.688 139.059 501.13 139.351 501.588 139.615L502.088 138.748L502.587 137.882C502.198 137.658 501.819 137.409 501.451 137.136L500.856 137.939ZM502.088 138.748L501.588 139.615C502.053 139.883 502.552 140.108 503.081 140.294L503.412 139.351L503.744 138.407C503.321 138.259 502.936 138.083 502.587 137.882L502.088 138.748ZM506.326 139.939L506.242 140.935C507.218 141.018 508.261 141.02 509.363 140.95L509.299 139.952L509.236 138.954C508.214 139.019 507.272 139.015 506.411 138.942L506.326 139.939ZM512.259 139.612L512.417 140.6C513.385 140.445 514.392 140.247 515.434 140.008L515.211 139.034L514.988 138.059C513.984 138.289 513.021 138.478 512.101 138.625L512.259 139.612ZM518.113 138.291L518.383 139.254C519.313 138.993 520.267 138.705 521.244 138.391L520.938 137.438L520.632 136.486C519.677 136.794 518.746 137.075 517.842 137.328L518.113 138.291ZM523.8 136.469L524.135 137.411C525.049 137.086 525.982 136.741 526.93 136.377L526.572 135.443L526.214 134.509C525.28 134.868 524.363 135.207 523.465 135.526L523.8 136.469ZM529.359 134.339L529.737 135.265C530.645 134.895 531.567 134.509 532.5 134.108L532.106 133.189L531.712 132.27C530.789 132.666 529.878 133.048 528.981 133.414L529.359 134.339ZM534.843 131.989L535.252 132.902C536.15 132.499 537.059 132.085 537.977 131.659L537.556 130.752L537.134 129.845C536.225 130.267 535.324 130.678 534.435 131.076L534.843 131.989ZM540.261 129.475L540.694 130.376C541.581 129.951 542.476 129.515 543.379 129.07L542.937 128.174L542.494 127.277C541.598 127.718 540.71 128.151 539.829 128.573L540.261 129.475ZM545.622 126.833L546.073 127.725C546.95 127.281 547.834 126.83 548.722 126.37L548.263 125.482L547.804 124.594C546.92 125.05 546.042 125.499 545.171 125.94L545.622 126.833ZM550.933 124.087L551.4 124.971C552.268 124.513 553.141 124.048 554.018 123.576L553.544 122.696L553.071 121.815C552.198 122.284 551.33 122.747 550.466 123.202L550.933 124.087ZM556.18 121.266L556.66 122.143C557.527 121.669 558.398 121.189 559.272 120.703L558.786 119.829L558.3 118.955C557.43 119.438 556.563 119.916 555.7 120.389L556.18 121.266ZM561.39 118.371L561.881 119.242C562.748 118.753 563.617 118.259 564.488 117.761L563.992 116.893L563.496 116.025C562.628 116.521 561.762 117.013 560.899 117.5L561.39 118.371ZM566.571 115.409L567.072 116.274C567.935 115.774 568.799 115.27 569.664 114.763L569.158 113.9L568.652 113.038C567.79 113.543 566.929 114.045 566.07 114.543L566.571 115.409ZM571.723 112.387L572.233 113.247C573.088 112.74 573.945 112.229 574.801 111.715L574.286 110.858L573.772 110C572.918 110.512 572.065 111.021 571.212 111.527L571.723 112.387ZM576.844 109.315L577.363 110.171C578.213 109.655 579.064 109.137 579.913 108.617L579.391 107.764L578.869 106.911C578.022 107.43 577.174 107.946 576.326 108.46L576.844 109.315ZM581.934 106.199L582.46 107.05C583.308 106.526 584.155 106 585 105.472L584.47 104.624L583.941 103.775C583.098 104.301 582.254 104.826 581.408 105.349L581.934 106.199ZM586.998 103.04L587.531 103.886C588.375 103.354 589.217 102.821 590.057 102.288L589.521 101.444L588.985 100.6C588.147 101.132 587.307 101.663 586.465 102.193L586.998 103.04ZM592.039 99.8374L592.579 100.68C593.417 100.143 594.252 99.6057 595.083 99.0686L594.541 98.2286L593.998 97.3886C593.169 97.9243 592.336 98.4601 591.5 98.9954L592.039 99.8374ZM597.056 96.5977L597.601 97.4357C598.437 96.8913 599.269 96.3473 600.097 95.8039L599.548 94.9679L599 94.1319C598.174 94.674 597.344 95.2167 596.51 95.7597L597.056 96.5977ZM602.043 93.3239L602.595 94.1579C603.431 93.6048 604.262 93.0528 605.087 92.5023L604.532 91.6703L603.978 90.8384C603.154 91.3875 602.325 91.9382 601.491 92.4899L602.043 93.3239ZM607 90.0185L607.557 90.8485C608.395 90.2855 609.227 89.7246 610.051 89.166L609.49 88.3381L608.929 87.5102C608.107 88.0674 607.277 88.627 606.442 89.1886L607 90.0185ZM611.94 86.672L612.504 87.4979C613.34 86.9273 614.168 86.3596 614.987 85.7955L614.42 84.9718L613.853 84.148C613.036 84.7108 612.21 85.2769 611.376 85.8461L611.94 86.672ZM616.865 83.2822L617.435 84.1038C618.265 83.5279 619.085 82.9563 619.895 82.3894L619.322 81.57L618.749 80.7507C617.941 81.3162 617.122 81.8863 616.295 82.4607L616.865 83.2822ZM621.761 79.8557L622.338 80.6727C623.163 80.0904 623.976 79.5138 624.776 78.9435L624.196 78.129L623.616 77.3146C622.818 77.8832 622.007 78.4581 621.184 79.0387L621.761 79.8557ZM626.625 76.3902L627.209 77.202C628.032 76.6103 628.84 76.0264 629.631 75.4511L629.043 74.6421L628.456 73.8332C627.667 74.4066 626.862 74.9885 626.042 75.5783L626.625 76.3902ZM631.452 72.8823L632.044 73.6881C632.869 73.0818 633.674 72.4864 634.458 71.9028L633.861 71.1006L633.264 70.2983C632.483 70.8794 631.681 71.4725 630.86 72.0765L631.452 72.8823ZM636.224 69.3305L636.826 70.1287C637.66 69.4995 638.466 68.8865 639.242 68.291L638.633 67.4977L638.024 66.7043C637.253 67.2963 636.451 67.9061 635.622 68.5323L636.224 69.3305ZM640.975 65.6835L641.591 66.4709C642.41 65.8297 643.188 65.2133 643.922 64.6238L643.295 63.8442L642.669 63.0646C641.943 63.6484 641.171 64.2595 640.358 64.8961L640.975 65.6835ZM645.633 61.9329L646.274 62.7008C647.124 61.9914 647.891 61.3338 648.568 60.7334L647.904 59.9855L647.24 59.2377C646.582 59.8217 645.831 60.4657 644.993 61.1649L645.633 61.9329ZM650.028 57.9832L650.746 58.6791C651.193 58.2176 651.56 57.7975 651.817 57.4331L651 56.8569L650.183 56.2807C650.013 56.5211 649.728 56.8555 649.309 57.2872L650.028 57.9832Z" fill="#2756CD"/>
</g>
<defs>
<clipPath id="clip0_216_782">
<rect width="654" height="140" fill="white"/>
</clipPath>
</defs>
</svg>
