<svg width="32" height="32" viewBox="0 0 32 32" fill="none" xmlns="http://www.w3.org/2000/svg">
<g clip-path="url(#clip0_145_155)">
<path fill-rule="evenodd" clip-rule="evenodd" d="M16.0001 2.66669C23.3638 2.66669 29.3334 8.63622 29.3334 16C29.3334 16.8651 29.2509 17.712 29.0929 18.5332C28.5963 21.1132 26.0794 22.2548 23.8842 21.9935L23.6503 21.9602L21.3305 21.5735C20.7827 21.4822 20.2246 21.6611 19.8321 22.0536C19.3389 22.5468 19.1031 23.2248 19.435 23.8884C19.9986 25.0156 20.0065 26.3044 19.5083 27.3592C18.841 28.7726 17.4795 29.3334 16.0001 29.3334C8.63628 29.3334 2.66675 23.3638 2.66675 16C2.66675 8.63622 8.63628 2.66669 16.0001 2.66669ZM10.0001 14.6667C8.89551 14.6667 8.00008 15.5622 8.00008 16.6667C8.00008 17.7712 8.89551 18.6667 10.0001 18.6667C11.1047 18.6667 12.0001 17.7712 12.0001 16.6667C12.0001 15.5622 11.1047 14.6667 10.0001 14.6667ZM19.3334 9.33335C18.2289 9.33335 17.3334 10.2288 17.3334 11.3334C17.3334 12.4379 18.2289 13.3334 19.3334 13.3334C20.4379 13.3334 21.3334 12.4379 21.3334 11.3334C21.3334 10.2288 20.4379 9.33335 19.3334 9.33335ZM12.6667 9.33335C11.5622 9.33335 10.6667 10.2288 10.6667 11.3334C10.6667 12.4379 11.5622 13.3334 12.6667 13.3334C13.7713 13.3334 14.6667 12.4379 14.6667 11.3334C14.6667 10.2288 13.7713 9.33335 12.6667 9.33335Z" fill="#2756CD"/>
</g>
<defs>
<clipPath id="clip0_145_155">
<rect width="32" height="32" fill="white"/>
</clipPath>
</defs>
</svg>
