<svg width="48" height="48" viewBox="0 0 48 48" fill="none" xmlns="http://www.w3.org/2000/svg">
<path d="M10.1399 16C11.9002 12.948 14.6186 10.5623 17.8734 9.21318C21.1282 7.86409 24.7373 7.62705 28.1405 8.53884C31.5438 9.45064 34.551 11.4603 36.6953 14.2559C38.8396 17.0515 40.0013 20.4767 39.9999 24" stroke="currentColor" stroke-width="4" stroke-linecap="round" stroke-linejoin="round"/>
<path d="M37.86 32C36.0997 35.0521 33.3813 37.4377 30.1265 38.7868C26.8717 40.1359 23.2626 40.373 19.8594 39.4612C16.4561 38.5494 13.4489 36.5397 11.3046 33.7441C9.16025 30.9485 7.99863 27.5233 8 24" stroke="currentColor" stroke-width="4" stroke-linecap="round" stroke-linejoin="round"/>
<path d="M10 6V16H20" stroke="currentColor" stroke-width="4" stroke-linecap="round" stroke-linejoin="round"/>
<path d="M38 42V32H28" stroke="currentColor" stroke-width="4" stroke-linecap="round" stroke-linejoin="round"/>
</svg>
