<svg width="48" height="48" viewBox="0 0 48 48" fill="none" xmlns="http://www.w3.org/2000/svg">
<g clip-path="url(#clip0_252_259)">
<mask id="path-1-inside-1_252_259" fill="white">
<path d="M42.7832 32.6719C42.872 32.7637 42.9165 32.8099 42.958 32.8555C43.6002 33.5607 43.9696 34.4716 43.999 35.4248C44.001 35.4866 44.001 35.5507 44.001 35.6787C44.001 35.9768 44.0011 36.126 43.9932 36.252C43.8662 38.2626 42.2635 39.8652 40.2529 39.9922C40.127 40.0002 39.9778 40 39.6797 40H8.32227C8.02387 40 7.87405 40.0002 7.74805 39.9922C5.73778 39.865 4.1358 38.2624 4.00879 36.252C4.00085 36.126 4.00098 35.9768 4.00098 35.6787C4.00098 35.5507 4.00101 35.4866 4.00293 35.4248C4.03239 34.4717 4.40103 33.5606 5.04297 32.8555C5.08459 32.8099 5.12975 32.7637 5.21875 32.6719L7.80664 30H40.1943L42.7832 32.6719ZM19.001 34.5C18.1726 34.5 17.501 35.1716 17.501 36C17.501 36.8284 18.1726 37.5 19.001 37.5H29.001C29.8293 37.4999 30.501 36.8283 30.501 36C30.501 35.1717 29.8293 34.5001 29.001 34.5H19.001ZM34.8008 34.2002C34.0718 34.2002 33.4805 34.7915 33.4805 35.5205C33.4807 36.2493 34.0719 36.8398 34.8008 36.8398H36.001C36.7297 36.8397 37.3201 36.2492 37.3203 35.5205C37.3203 34.7916 36.7299 34.2003 36.001 34.2002H34.8008Z"/>
</mask>
<path d="M42.7832 32.6719C42.872 32.7637 42.9165 32.8099 42.958 32.8555C43.6002 33.5607 43.9696 34.4716 43.999 35.4248C44.001 35.4866 44.001 35.5507 44.001 35.6787C44.001 35.9768 44.0011 36.126 43.9932 36.252C43.8662 38.2626 42.2635 39.8652 40.2529 39.9922C40.127 40.0002 39.9778 40 39.6797 40H8.32227C8.02387 40 7.87405 40.0002 7.74805 39.9922C5.73778 39.865 4.1358 38.2624 4.00879 36.252C4.00085 36.126 4.00098 35.9768 4.00098 35.6787C4.00098 35.5507 4.00101 35.4866 4.00293 35.4248C4.03239 34.4717 4.40103 33.5606 5.04297 32.8555C5.08459 32.8099 5.12975 32.7637 5.21875 32.6719L7.80664 30H40.1943L42.7832 32.6719ZM19.001 34.5C18.1726 34.5 17.501 35.1716 17.501 36C17.501 36.8284 18.1726 37.5 19.001 37.5H29.001C29.8293 37.4999 30.501 36.8283 30.501 36C30.501 35.1717 29.8293 34.5001 29.001 34.5H19.001ZM34.8008 34.2002C34.0718 34.2002 33.4805 34.7915 33.4805 35.5205C33.4807 36.2493 34.0719 36.8398 34.8008 36.8398H36.001C36.7297 36.8397 37.3201 36.2492 37.3203 35.5205C37.3203 34.7916 36.7299 34.2003 36.001 34.2002H34.8008Z" fill="currentColor"/>
<path d="M42.7832 32.6719L42.8263 32.6302L42.8263 32.6301L42.7832 32.6719ZM42.958 32.8555L43.0024 32.8151L43.0023 32.815L42.958 32.8555ZM43.999 35.4248L43.9391 35.4267L43.9391 35.4267L43.999 35.4248ZM44.001 35.6787H43.941H44.001ZM43.9932 36.252L43.9333 36.2482V36.2482L43.9932 36.252ZM40.2529 39.9922L40.2491 39.9323L40.2491 39.9323L40.2529 39.9922ZM39.6797 40V40.06V40ZM7.74805 39.9922L7.75185 39.9323L7.75184 39.9323L7.74805 39.9922ZM4.00879 36.252L3.94891 36.2557L3.94891 36.2557L4.00879 36.252ZM4.00098 35.6787H3.94098H4.00098ZM4.00293 35.4248L4.0629 35.4267L4.0629 35.4267L4.00293 35.4248ZM5.04297 32.8555L4.99865 32.815L4.9986 32.8151L5.04297 32.8555ZM5.21875 32.6719L5.26183 32.7136L5.26185 32.7136L5.21875 32.6719ZM7.80664 30V29.94H7.78122L7.76354 29.9583L7.80664 30ZM40.1943 30L40.2374 29.9582L40.2197 29.94H40.1943V30ZM17.501 36H17.441V36H17.501ZM29.001 37.5V37.56H29.001L29.001 37.5ZM30.501 36H30.561V36H30.501ZM29.001 34.5L29.001 34.44H29.001V34.5ZM33.4805 35.5205H33.4205V35.5205L33.4805 35.5205ZM36.001 36.8398V36.8998H36.001L36.001 36.8398ZM37.3203 35.5205L37.3803 35.5205V35.5205H37.3203ZM36.001 34.2002L36.001 34.1402H36.001V34.2002ZM42.7832 32.6719L42.7401 32.7136C42.829 32.8055 42.8728 32.8511 42.9137 32.8959L42.958 32.8555L43.0023 32.815C42.9601 32.7687 42.915 32.7218 42.8263 32.6302L42.7832 32.6719ZM42.958 32.8555L42.9136 32.8959C43.5462 33.5905 43.9101 34.4878 43.9391 35.4267L43.999 35.4248L44.059 35.423C44.0292 34.4555 43.6541 33.5308 43.0024 32.8151L42.958 32.8555ZM43.999 35.4248L43.9391 35.4267C43.941 35.4873 43.941 35.5503 43.941 35.6787H44.001H44.061C44.061 35.5511 44.061 35.4859 44.059 35.4229L43.999 35.4248ZM44.001 35.6787H43.941C43.941 35.9778 43.9411 36.1246 43.9333 36.2482L43.9932 36.252L44.053 36.2557C44.0612 36.1274 44.061 35.9758 44.061 35.6787H44.001ZM43.9932 36.252L43.9333 36.2482C43.8082 38.2286 42.2296 39.8072 40.2491 39.9323L40.2529 39.9922L40.2567 40.0521C42.2975 39.9232 43.9241 38.2965 44.053 36.2557L43.9932 36.252ZM40.2529 39.9922L40.2491 39.9323C40.1256 39.9402 39.9788 39.94 39.6797 39.94V40V40.06C39.9769 40.06 40.1284 40.0602 40.2567 40.0521L40.2529 39.9922ZM39.6797 40V39.94H8.32227V40V40.06H39.6797V40ZM8.32227 40V39.94C8.02287 39.94 7.87546 39.9402 7.75185 39.9323L7.74805 39.9922L7.74425 40.0521C7.87264 40.0602 8.02486 40.06 8.32227 40.06V40ZM7.74805 39.9922L7.75184 39.9323C5.77174 39.807 4.19378 38.2285 4.06867 36.2482L4.00879 36.252L3.94891 36.2557C4.07782 38.2963 5.70383 39.923 7.74426 40.0521L7.74805 39.9922ZM4.00879 36.252L4.06867 36.2482C4.06088 36.1246 4.06098 35.9778 4.06098 35.6787H4.00098H3.94098C3.94098 35.9759 3.94081 36.1274 3.94891 36.2557L4.00879 36.252ZM4.00098 35.6787H4.06098C4.06098 35.5504 4.06102 35.4873 4.0629 35.4267L4.00293 35.4248L3.94296 35.4229C3.941 35.4859 3.94098 35.5511 3.94098 35.6787H4.00098ZM4.00293 35.4248L4.0629 35.4267C4.09192 34.4879 4.45504 33.5904 5.08734 32.8959L5.04297 32.8555L4.9986 32.8151C4.34703 33.5308 3.97286 34.4556 3.94296 35.423L4.00293 35.4248ZM5.04297 32.8555L5.08729 32.8959C5.12812 32.8512 5.17242 32.8059 5.26183 32.7136L5.21875 32.6719L5.17567 32.6301C5.08708 32.7215 5.04105 32.7686 4.99865 32.815L5.04297 32.8555ZM5.21875 32.6719L5.26185 32.7136L7.84974 30.0417L7.80664 30L7.76354 29.9583L5.17565 32.6301L5.21875 32.6719ZM7.80664 30V30.06H40.1943V30V29.94H7.80664V30ZM40.1943 30L40.1512 30.0418L42.7401 32.7136L42.7832 32.6719L42.8263 32.6301L40.2374 29.9582L40.1943 30ZM19.001 34.5V34.44C18.1394 34.44 17.441 35.1385 17.441 36H17.501H17.561C17.561 35.2047 18.2057 34.56 19.001 34.56V34.5ZM17.501 36H17.441C17.441 36.8615 18.1394 37.56 19.001 37.56V37.5V37.44C18.2057 37.44 17.561 36.7953 17.561 36H17.501ZM19.001 37.5V37.56H29.001V37.5V37.44H19.001V37.5ZM29.001 37.5L29.001 37.56C29.8624 37.5599 30.561 36.8615 30.561 36H30.501H30.441C30.441 36.7952 29.7961 37.4399 29.001 37.44L29.001 37.5ZM30.501 36H30.561C30.561 35.1385 29.8624 34.4401 29.001 34.44L29.001 34.5L29.001 34.56C29.7961 34.5601 30.441 35.2048 30.441 36H30.501ZM29.001 34.5V34.44H19.001V34.5V34.56H29.001V34.5ZM34.8008 34.2002V34.1402C34.0386 34.1402 33.4205 34.7584 33.4205 35.5205H33.4805H33.5405C33.5405 34.8246 34.1049 34.2602 34.8008 34.2602V34.2002ZM33.4805 35.5205L33.4205 35.5205C33.4207 36.2825 34.0388 36.8998 34.8008 36.8998V36.8398V36.7798C34.105 36.7798 33.5407 36.2161 33.5405 35.5205L33.4805 35.5205ZM34.8008 36.8398V36.8998H36.001V36.8398V36.7798H34.8008V36.8398ZM36.001 36.8398L36.001 36.8998C36.7629 36.8997 37.3801 36.2824 37.3803 35.5205L37.3203 35.5205L37.2603 35.5205C37.2601 36.2161 36.6966 36.7797 36.001 36.7798L36.001 36.8398ZM37.3203 35.5205H37.3803C37.3803 34.7585 36.7631 34.1404 36.001 34.1402L36.001 34.2002L36.001 34.2602C36.6967 34.2603 37.2603 34.8247 37.2603 35.5205H37.3203ZM36.001 34.2002V34.1402H34.8008V34.2002V34.2602H36.001V34.2002Z" fill="currentColor" mask="url(#path-1-inside-1_252_259)"/>
<path d="M16.7061 6.03027H31.2939C33.1804 6.03027 34.5929 6.02967 35.6797 6.17578C36.7654 6.32177 37.5223 6.61327 38.1016 7.19238C38.6809 7.77166 38.9722 8.52931 39.1182 9.61523C39.2642 10.702 39.2646 12.1137 39.2646 14V27.9697H8.73633V14C8.73633 12.1137 8.73577 10.702 8.88184 9.61523C9.02784 8.52931 9.31915 7.77166 9.89844 7.19238C10.4777 6.6131 11.2354 6.32178 12.3213 6.17578C13.408 6.02972 14.8198 6.03027 16.7061 6.03027ZM24 9.96973C23.1551 9.96982 22.4697 10.6551 22.4697 11.5C22.4697 12.3449 23.1551 13.0302 24 13.0303C24.845 13.0303 25.5303 12.345 25.5303 11.5C25.5303 10.655 24.845 9.96973 24 9.96973Z" fill="currentColor" stroke="#3867DD" stroke-width="0.06"/>
<path d="M32.8179 15.8201H37.9819C39.0973 15.82 40.0297 15.8211 40.77 15.9207C41.5562 16.0264 42.2676 16.259 42.8394 16.8308C43.4112 17.4027 43.6437 18.114 43.7495 18.9001C43.849 19.6404 43.8502 20.5729 43.8501 21.6882V34.3523C43.8502 35.4676 43.849 36.4001 43.7495 37.1404C43.6437 37.9266 43.4112 38.638 42.8394 39.2097C42.2676 39.7816 41.5562 40.014 40.77 40.1199C40.0297 40.2194 39.0973 40.2206 37.9819 40.2205H32.8179C31.7025 40.2206 30.77 40.2194 30.0298 40.1199C29.2927 40.0206 28.6211 39.8105 28.0688 39.3132L27.9604 39.2097L27.8569 39.1013C27.3597 38.5491 27.1494 37.8775 27.0503 37.1404C26.9508 36.4001 26.9496 35.4677 26.9497 34.3523V21.6882L26.9517 20.8855C26.9565 20.1184 26.9757 19.4552 27.0503 18.9001C27.156 18.114 27.3886 17.4027 27.9604 16.8308C28.5323 16.259 29.2436 16.0264 30.0298 15.9207C30.77 15.8211 31.7025 15.82 32.8179 15.8201ZM34.7749 33.9705C33.9188 33.9705 33.2251 34.6642 33.2251 35.5203C33.2251 36.3763 33.9188 37.0701 34.7749 37.0701H36.0249C36.881 37.0701 37.5747 36.3763 37.5747 35.5203C37.5747 34.6642 36.881 33.9705 36.0249 33.9705H34.7749Z" fill="currentColor" stroke="#59E1FF" stroke-width="0.6"/>
</g>
<defs>
<clipPath id="clip0_252_259">
<rect width="48" height="48" fill="white"/>
</clipPath>
</defs>
</svg>
